<svg id="visual" viewBox="0 0 900 600" width="900" height="600" xmlns="http://www.w3.org/2000/svg" xmlns:xlink="http://www.w3.org/1999/xlink" version="1.1"><rect x="0" y="0" width="900" height="600" fill="#CDE8E1"></rect><defs><linearGradient id="grad1_0" x1="33.3%" y1="0%" x2="100%" y2="100%"><stop offset="20%" stop-color="#cde8e1" stop-opacity="1"></stop><stop offset="80%" stop-color="#cde8e1" stop-opacity="1"></stop></linearGradient></defs><defs><linearGradient id="grad2_0" x1="0%" y1="0%" x2="66.7%" y2="100%"><stop offset="20%" stop-color="#cde8e1" stop-opacity="1"></stop><stop offset="80%" stop-color="#cde8e1" stop-opacity="1"></stop></linearGradient></defs><g transform="translate(900, 0)"><path d="M0 486.7C-43.2 454.4 -86.4 422 -132.3 407.1C-178.1 392.1 -226.5 394.6 -275.7 379.4C-324.9 364.2 -374.9 331.4 -393.8 286.1C-412.7 240.9 -400.5 183.2 -410.9 133.5C-421.2 83.8 -454 41.9 -486.7 0L0 0Z" fill="#94DFE1"></path></g><g transform="translate(0, 600)"><path d="M0 -486.7C45.9 -467.1 91.7 -447.5 141.5 -435.6C191.3 -423.7 245.1 -419.6 286.1 -393.8C327.1 -368 355.4 -320.5 379.4 -275.7C403.4 -230.8 423.2 -188.6 440.3 -143.1C457.5 -97.6 472.1 -48.8 486.7 0L0 0Z" fill="#94DFE1"></path></g></svg>